<svg width="150" height="40" viewBox="0 0 150 40" fill="none" xmlns="http://www.w3.org/2000/svg">
<path d="M0.0341562 31L10.2402 0.969999H17.9682L28.1742 31H20.6142L18.7662 24.7H9.40016L7.59416 31H0.0341562ZM11.1222 18.82H17.0442L15.3642 12.982L14.1462 7.816H14.0622C13.6142 10 13.2082 11.722 12.8442 12.982L11.1222 18.82ZM30.4868 31V9.37H37.4588V13.024L37.3748 14.368H37.4588C37.9348 12.856 38.8028 11.582 40.0628 10.546C41.3508 9.51 42.7788 8.992 44.3468 8.992C44.5708 8.992 44.8508 9.02 45.1868 9.076V16.216C44.9348 16.132 44.4448 16.09 43.7168 16.09C41.7568 16.09 40.2728 16.664 39.2648 17.812C38.2568 18.96 37.7528 20.556 37.7528 22.6V31H30.4868ZM48.3696 31V0.969999H55.6356V9.328L55.5516 11.176H55.6356C56.2516 10.476 57.0916 9.916 58.1556 9.496C59.2476 9.076 60.3536 8.866 61.4736 8.866C64.4136 8.866 66.7656 9.916 68.5296 12.016C70.3216 14.088 71.2176 16.818 71.2176 20.206C71.2176 23.594 70.2656 26.324 68.3616 28.396C66.4576 30.468 64.0496 31.504 61.1376 31.504C58.5336 31.504 56.5176 30.65 55.0896 28.942H55.0056C55.0336 29.306 55.0476 29.712 55.0476 30.16V31H48.3696ZM55.4256 20.332C55.4256 21.732 55.7896 22.95 56.5176 23.986C57.2736 24.994 58.3236 25.498 59.6676 25.498C60.8716 25.498 61.8796 25.036 62.6916 24.112C63.5036 23.188 63.9096 21.928 63.9096 20.332C63.9096 18.736 63.5176 17.448 62.7336 16.468C61.9496 15.488 60.9276 14.998 59.6676 14.998C58.4636 14.998 57.4556 15.446 56.6436 16.342C55.8316 17.238 55.4256 18.568 55.4256 20.332ZM75.0317 6.64V0.969999H82.1297V6.64H75.0317ZM74.9477 31V9.37H82.2137V31H74.9477ZM88.3483 23.02V15.418H85.5763V9.748H88.5583V3.532H95.6143V9.748H100.15V15.418H95.6143V22.054C95.6143 23.902 96.9023 24.826 99.4783 24.826C99.8143 24.826 100.136 24.812 100.444 24.784V31.084C99.3523 31.168 98.6943 31.21 98.4703 31.21C97.7983 31.21 97.1403 31.168 96.4963 31.084C95.8803 31.028 95.1523 30.902 94.3123 30.706C93.5003 30.51 92.7583 30.216 92.0863 29.824C91.4423 29.432 90.8263 28.956 90.2383 28.396C89.6503 27.808 89.1883 27.052 88.8523 26.128C88.5163 25.204 88.3483 24.168 88.3483 23.02ZM103.138 20.164C103.138 16.916 104.16 14.228 106.204 12.1C108.248 9.944 110.978 8.866 114.394 8.866C117.502 8.866 119.938 9.846 121.702 11.806C123.494 13.738 124.39 16.244 124.39 19.324C124.39 19.828 124.334 20.584 124.222 21.592H110.572C110.824 22.852 111.412 23.818 112.336 24.49C113.288 25.134 114.38 25.456 115.612 25.456C117.404 25.456 119.392 24.728 121.576 23.272L124.264 28.354C123.116 29.334 121.702 30.104 120.022 30.664C118.37 31.224 116.704 31.504 115.024 31.504C111.356 31.504 108.458 30.384 106.33 28.144C104.202 25.904 103.138 23.244 103.138 20.164ZM110.74 17.434H117.208C117.208 16.51 116.928 15.74 116.368 15.124C115.836 14.508 115.122 14.2 114.226 14.2C112.378 14.2 111.216 15.278 110.74 17.434ZM131.21 32.386C133.114 33.31 135.144 33.772 137.3 33.772C140.632 33.772 142.298 32.386 142.298 29.614V28.9L142.34 28.102H142.256C140.996 29.614 139.19 30.37 136.838 30.37C133.758 30.37 131.364 29.306 129.656 27.178C127.948 25.05 127.094 22.488 127.094 19.492C127.094 16.524 127.934 14.018 129.614 11.974C131.294 9.902 133.688 8.866 136.796 8.866C139.316 8.866 141.276 9.566 142.676 10.966H142.802C142.774 10.798 142.76 10.63 142.76 10.462V9.37H149.564V29.026C149.564 30.93 149.214 32.596 148.514 34.024C147.814 35.452 146.862 36.572 145.658 37.384C144.454 38.224 143.152 38.84 141.752 39.232C140.38 39.624 138.91 39.82 137.342 39.82C134.346 39.82 131.616 39.176 129.152 37.888L131.21 32.386ZM134.402 19.24C134.402 20.696 134.752 21.914 135.452 22.894C136.152 23.846 137.188 24.322 138.56 24.322C139.68 24.322 140.604 23.972 141.332 23.272C142.088 22.544 142.466 21.312 142.466 19.576C142.466 16.468 141.066 14.914 138.266 14.914C137.034 14.914 136.082 15.32 135.41 16.132C134.738 16.916 134.402 17.952 134.402 19.24Z" fill="#404055"/>
</svg>
