<svg width="151" height="40" viewBox="0 0 151 40" fill="none" xmlns="http://www.w3.org/2000/svg">
<path d="M0.874 31L11.08 0.969999H18.808L29.014 31H21.454L19.606 24.7H10.24L8.434 31H0.874ZM11.962 18.82H17.884L16.204 12.982L14.986 7.816H14.902C14.454 10 14.048 11.722 13.684 12.982L11.962 18.82ZM31.3266 31V9.37H38.2986V13.024L38.2146 14.368H38.2986C38.7746 12.856 39.6426 11.582 40.9026 10.546C42.1906 9.51 43.6186 8.992 45.1866 8.992C45.4106 8.992 45.6906 9.02 46.0266 9.076V16.216C45.7746 16.132 45.2846 16.09 44.5566 16.09C42.5966 16.09 41.1126 16.664 40.1046 17.812C39.0966 18.96 38.5926 20.556 38.5926 22.6V31H31.3266ZM49.2094 31V0.969999H56.4754V9.328L56.3914 11.176H56.4754C57.0914 10.476 57.9314 9.916 58.9954 9.496C60.0874 9.076 61.1934 8.866 62.3134 8.866C65.2534 8.866 67.6054 9.916 69.3694 12.016C71.1614 14.088 72.0574 16.818 72.0574 20.206C72.0574 23.594 71.1054 26.324 69.2014 28.396C67.2974 30.468 64.8894 31.504 61.9774 31.504C59.3734 31.504 57.3574 30.65 55.9294 28.942H55.8454C55.8734 29.306 55.8874 29.712 55.8874 30.16V31H49.2094ZM56.2654 20.332C56.2654 21.732 56.6294 22.95 57.3574 23.986C58.1134 24.994 59.1634 25.498 60.5074 25.498C61.7114 25.498 62.7194 25.036 63.5314 24.112C64.3434 23.188 64.7494 21.928 64.7494 20.332C64.7494 18.736 64.3574 17.448 63.5734 16.468C62.7894 15.488 61.7674 14.998 60.5074 14.998C59.3034 14.998 58.2954 15.446 57.4834 16.342C56.6714 17.238 56.2654 18.568 56.2654 20.332ZM75.8716 6.64V0.969999H82.9696V6.64H75.8716ZM75.7876 31V9.37H83.0536V31H75.7876ZM89.1882 23.02V15.418H86.4162V9.748H89.3982V3.532H96.4542V9.748H100.99V15.418H96.4542V22.054C96.4542 23.902 97.7422 24.826 100.318 24.826C100.654 24.826 100.976 24.812 101.284 24.784V31.084C100.192 31.168 99.5342 31.21 99.3102 31.21C98.6382 31.21 97.9802 31.168 97.3362 31.084C96.7202 31.028 95.9922 30.902 95.1522 30.706C94.3402 30.51 93.5982 30.216 92.9262 29.824C92.2822 29.432 91.6662 28.956 91.0782 28.396C90.4902 27.808 90.0282 27.052 89.6922 26.128C89.3562 25.204 89.1882 24.168 89.1882 23.02ZM103.978 20.164C103.978 16.916 105 14.228 107.044 12.1C109.088 9.944 111.818 8.866 115.234 8.866C118.342 8.866 120.778 9.846 122.542 11.806C124.334 13.738 125.23 16.244 125.23 19.324C125.23 19.828 125.174 20.584 125.062 21.592H111.412C111.664 22.852 112.252 23.818 113.176 24.49C114.128 25.134 115.22 25.456 116.452 25.456C118.244 25.456 120.232 24.728 122.416 23.272L125.104 28.354C123.956 29.334 122.542 30.104 120.862 30.664C119.21 31.224 117.544 31.504 115.864 31.504C112.196 31.504 109.298 30.384 107.17 28.144C105.042 25.904 103.978 23.244 103.978 20.164ZM111.58 17.434H118.048C118.048 16.51 117.768 15.74 117.208 15.124C116.676 14.508 115.962 14.2 115.066 14.2C113.218 14.2 112.056 15.278 111.58 17.434ZM132.05 32.386C133.954 33.31 135.984 33.772 138.14 33.772C141.472 33.772 143.138 32.386 143.138 29.614V28.9L143.18 28.102H143.096C141.836 29.614 140.03 30.37 137.678 30.37C134.598 30.37 132.204 29.306 130.496 27.178C128.788 25.05 127.934 22.488 127.934 19.492C127.934 16.524 128.774 14.018 130.454 11.974C132.134 9.902 134.528 8.866 137.636 8.866C140.156 8.866 142.116 9.566 143.516 10.966H143.642C143.614 10.798 143.6 10.63 143.6 10.462V9.37H150.404V29.026C150.404 30.93 150.054 32.596 149.354 34.024C148.654 35.452 147.702 36.572 146.498 37.384C145.294 38.224 143.992 38.84 142.592 39.232C141.22 39.624 139.75 39.82 138.182 39.82C135.186 39.82 132.456 39.176 129.992 37.888L132.05 32.386ZM135.242 19.24C135.242 20.696 135.592 21.914 136.292 22.894C136.992 23.846 138.028 24.322 139.4 24.322C140.52 24.322 141.444 23.972 142.172 23.272C142.928 22.544 143.306 21.312 143.306 19.576C143.306 16.468 141.906 14.914 139.106 14.914C137.874 14.914 136.922 15.32 136.25 16.132C135.578 16.916 135.242 17.952 135.242 19.24Z" fill="#FCC103"/>
</svg>
