<svg width="60" height="64" viewBox="0 0 60 64" fill="none" xmlns="http://www.w3.org/2000/svg">
<path d="M19.4226 32.2759H38.0892" stroke="black" stroke-width="3" stroke-linecap="round" stroke-linejoin="round"/>
<path d="M36.8442 2L46.8 11.9588H36.8442V2Z" stroke="black" stroke-width="3" stroke-linecap="round" stroke-linejoin="round"/>
<path d="M19.4226 15.204H29.3784" stroke="black" stroke-width="3" stroke-linecap="round" stroke-linejoin="round"/>
<path d="M9.46674 15.204H11.9559" stroke="black" stroke-width="3" stroke-linecap="round" stroke-linejoin="round"/>
<path d="M9.46674 32.2759H11.9559" stroke="black" stroke-width="3" stroke-linecap="round" stroke-linejoin="round"/>
<path d="M9.46674 40.8109H11.9559" stroke="black" stroke-width="3" stroke-linecap="round" stroke-linejoin="round"/>
<path d="M9.46674 49.3468H11.9559" stroke="black" stroke-width="3" stroke-linecap="round" stroke-linejoin="round"/>
<path d="M35.6 43.0786C35.6 36.8916 40.6148 31.8754 46.8 31.8754C52.9852 31.8754 58 36.8916 58 43.0786C58 49.2656 52.9852 54.2819 46.8 54.2819C40.6148 54.2819 35.6 49.2656 35.6 43.0786Z" stroke="black" stroke-width="3" stroke-linecap="round" stroke-linejoin="round"/>
<path d="M35.2043 40.8109H19.4226" stroke="black" stroke-width="3" stroke-linecap="round" stroke-linejoin="round"/>
<path d="M19.4226 49.3468H28.9015" stroke="black" stroke-width="3" stroke-linecap="round" stroke-linejoin="round"/>
<path d="M46.8 31.8754V11.9588L36.8442 2H2.00003V62H46.8V54.2819" stroke="black" stroke-width="3" stroke-linecap="round" stroke-linejoin="round"/>
<path d="M42.8399 43.0787L45.4794 45.7189L50.7592 40.4375" stroke="black" stroke-width="3" stroke-linecap="round" stroke-linejoin="round"/>
</svg>
