<svg width="56" height="64" viewBox="0 0 56 64" fill="none" xmlns="http://www.w3.org/2000/svg">
<path d="M54.0001 62H31.7143V50.5475H24.2858" stroke="black" stroke-width="3" stroke-linecap="round" stroke-linejoin="round"/>
<path d="M9.42859 50.5475V62" stroke="black" stroke-width="3" stroke-linecap="round" stroke-linejoin="round"/>
<path d="M16.8573 43.0786H46.5716C50.674 43.0786 54.0002 46.4228 54.0002 50.5475V62" stroke="black" stroke-width="3" stroke-linecap="round" stroke-linejoin="round"/>
<path d="M22.4288 31.8753C22.4288 36 19.1027 39.3442 15.0002 39.3442C10.8978 39.3442 7.57166 36 7.57166 31.8753C7.57166 27.7507 10.8978 24.4065 15.0002 24.4065C19.1027 24.4065 22.4288 27.7507 22.4288 31.8753Z" stroke="black" stroke-width="3" stroke-linecap="round" stroke-linejoin="round"/>
<path d="M48.4288 31.8753C48.4288 36 45.1027 39.3442 41.0002 39.3442C36.8978 39.3442 33.5717 36 33.5717 31.8753C33.5717 27.7507 36.8978 24.4065 41.0002 24.4065C45.1027 24.4065 48.4288 27.7507 48.4288 31.8753Z" stroke="black" stroke-width="3" stroke-linecap="round" stroke-linejoin="round"/>
<path d="M24.2858 62H2.00012V50.5475C2.00012 46.4228 5.32627 43.0786 9.42869 43.0786H16.8573C20.9597 43.0786 24.2858 46.4228 24.2858 50.5475V62Z" stroke="black" stroke-width="3" stroke-linecap="round" stroke-linejoin="round"/>
<path d="M46.5717 50.5475V62" stroke="black" stroke-width="3" stroke-linecap="round" stroke-linejoin="round"/>
<path d="M28.0002 20.6721L31.7145 16.9377H42.8573C46.9598 16.9377 50.2859 13.5935 50.2859 9.46884C50.2859 5.34418 46.9598 2 42.8573 2H13.143C9.04062 2 5.71448 5.34418 5.71448 9.46884C5.71448 13.5935 9.04062 16.9377 13.143 16.9377H24.2859L28.0002 20.6721Z" stroke="black" stroke-width="3" stroke-linecap="round" stroke-linejoin="round"/>
<path d="M18.7144 9.46877C18.7144 10.5004 17.8833 11.336 16.8573 11.336C15.8312 11.336 15.0001 10.5004 15.0001 9.46877C15.0001 8.43714 15.8312 7.60156 16.8573 7.60156C17.8833 7.60156 18.7144 8.43714 18.7144 9.46877Z" fill="black"/>
<path d="M29.8572 9.46877C29.8572 10.5004 29.0262 11.336 28.0001 11.336C26.974 11.336 26.1429 10.5004 26.1429 9.46877C26.1429 8.43714 26.974 7.60156 28.0001 7.60156C29.0262 7.60156 29.8572 8.43714 29.8572 9.46877Z" fill="black"/>
<path d="M41.0001 9.46877C41.0001 10.5004 40.169 11.336 39.1429 11.336C38.1168 11.336 37.2858 10.5004 37.2858 9.46877C37.2858 8.43714 38.1168 7.60156 39.1429 7.60156C40.169 7.60156 41.0001 8.43714 41.0001 9.46877Z" fill="black"/>
</svg>
