<svg width="80" height="80" viewBox="0 0 80 80" fill="none" xmlns="http://www.w3.org/2000/svg">
<path d="M71.5545 37.5561C71.5545 34.8563 69.3659 32.6678 66.6662 32.6678H12.8883C10.1885 32.6678 8 34.8563 8 37.5561C8 40.2558 10.1885 42.4455 12.8883 42.4455H66.6651C69.3648 42.4455 71.5533 40.2569 71.5533 37.5561H71.5545Z" stroke="#FCC103" stroke-width="2" stroke-linecap="round" stroke-linejoin="round"/>
<path d="M15.3336 42.4455L34.889 62.0009V76.6669L44.6667 71.7786V62.0009L64.2221 42.4455H15.3336Z" stroke="#FCC103" stroke-width="2" stroke-linecap="round" stroke-linejoin="round"/>
<path d="M64.221 18.0006C68.2671 18.0006 71.5545 14.7144 71.5545 10.6671C71.5545 6.61977 68.2683 3.33353 64.221 3.33353C60.1736 3.33353 56.8874 6.61977 56.8874 10.6671C56.8874 14.7144 60.1736 18.0006 64.221 18.0006Z" stroke="#FCC103" stroke-width="2" stroke-linecap="round" stroke-linejoin="round"/>
<path d="M39.7772 22.8901C43.8245 22.8901 47.1108 19.6038 47.1108 15.5565C47.1108 11.5092 43.8245 8.22296 39.7772 8.22296C35.7299 8.22296 32.4437 11.5092 32.4437 15.5565C32.4437 19.6038 35.7299 22.8901 39.7772 22.8901Z" stroke="#FCC103" stroke-width="2" stroke-linecap="round" stroke-linejoin="round"/>
<path d="M15.3336 18.0008C19.3809 18.0008 22.6671 14.7146 22.6671 10.6673C22.6671 6.61994 19.3797 3.33484 15.3336 3.33484C11.2874 3.33484 8 6.62108 8 10.6684C8 14.7157 11.2862 18.002 15.3336 18.002V18.0008Z" stroke="#FCC103" stroke-width="2" stroke-linecap="round" stroke-linejoin="round"/>
</svg>
