<svg width="80" height="80" viewBox="0 0 80 80" fill="none" xmlns="http://www.w3.org/2000/svg">
<path d="M58.6024 34.2258C58.8702 32.3484 59.7252 30.5394 61.1705 29.0956C64.7154 25.5508 70.4632 25.5508 74.008 29.0956C77.5528 32.6405 77.5528 38.3883 74.008 41.9331C71.9846 43.9566 69.2445 44.8253 66.6064 44.5393" stroke="#FCC103" stroke-width="2" stroke-linejoin="round"/>
<path d="M40.8828 55.2164L31.6799 65.3976C30.8583 66.3074 29.8512 67.0285 28.7269 67.5169L18.9048 71.7722C16.5908 72.7352 13.9329 71.6398 12.9714 69.3243C12.0099 67.0102 13.1053 64.3539 15.4208 63.3924L23.5937 59.9951L31.7742 51.3673L19.5772 56.1764C18.7344 56.5081 17.817 56.6085 16.9224 56.464L7.08816 54.8741C5.02364 54.5394 3.33337 52.5555 3.33337 50.4636V50.3449C3.33337 47.4437 5.67631 45.4506 8.53957 45.9162L17.2769 47.3341L50.8053 33.9124C53.9576 32.7896 57.475 33.5808 59.8423 35.948L63.7629 39.8687C64.9587 41.0645 65.7788 42.5843 66.1211 44.2411L68.5355 55.9117L74.7534 62.1844C76.5198 63.9659 76.5137 66.8414 74.7397 68.6153C72.9689 70.3862 70.0965 70.3786 68.3347 68.6001L61.3105 61.5089C60.673 60.8653 60.2196 60.0621 60.0005 59.1827L57.3077 47.9396L40.8828 55.221V55.2164Z" stroke="#FCC103" stroke-width="2" stroke-linejoin="round"/>
<path d="M26.2394 57.2064L33.3169 63.5886" stroke="#FCC103" stroke-width="2" stroke-linejoin="round"/>
<path d="M22.9684 54.8406L20.7731 45.9329" stroke="#FCC103" stroke-width="2" stroke-linejoin="round"/>
<path d="M57.3092 47.9366L57.0704 46.8959C56.5166 44.4815 57.9284 42.0503 60.3003 41.3383C62.9642 40.5381 65.7377 42.2116 66.2702 44.941L66.3417 45.3061" stroke="#FCC103" stroke-width="2" stroke-linejoin="round"/>
<path d="M49.3417 23.7449L41.1688 8.00006" stroke="#FCC103" stroke-width="2" stroke-linecap="round" stroke-linejoin="round"/>
<path d="M35.2734 23.7449L27.1005 8.00006" stroke="#FCC103" stroke-width="2" stroke-linecap="round" stroke-linejoin="round"/>
<path d="M25.9579 32.5508L17.7835 16.8059" stroke="#FCC103" stroke-width="2" stroke-linecap="round" stroke-linejoin="round"/>
</svg>
