<svg width="80" height="80" viewBox="0 0 80 80" fill="none" xmlns="http://www.w3.org/2000/svg">
<path d="M53.6475 62.8144C53.1424 65.4617 50.8161 67.4624 48.0212 67.4624H25.1037L13.6457 76.6671V67.4624C12.0634 67.4624 10.6317 66.8203 9.59563 65.7842C8.55801 64.7481 7.91748 63.3149 7.91748 61.7326V57.1074C9.26548 57.8879 10.831 58.3337 12.5001 58.3337H49.1668L53.6475 62.8144Z" stroke="#FCC103" stroke-width="2" stroke-linecap="round" stroke-linejoin="round"/>
<path d="M76.6669 12.5003V49.167C76.6669 51.6987 75.6415 53.99 73.9831 55.6499C72.3232 57.3083 70.0319 58.3337 67.5002 58.3337V76.6671L49.1668 58.3337H12.5001C10.831 58.3337 9.26548 57.8879 7.91748 57.1074C5.17736 55.5236 3.33337 52.5614 3.33337 49.167V12.5003C3.33337 7.43689 7.43671 3.33356 12.5001 3.33356H67.5002C72.5636 3.33356 76.6669 7.43689 76.6669 12.5003Z" stroke="#FCC103" stroke-width="2" stroke-linecap="round" stroke-linejoin="round"/>
<path d="M40.0001 12.9703V19.6449" stroke="#FCC103" stroke-width="2" stroke-linecap="round" stroke-linejoin="round"/>
<path d="M40.0001 41.861V48.5356" stroke="#FCC103" stroke-width="2" stroke-linecap="round" stroke-linejoin="round"/>
<path d="M57.7827 30.753H51.1082" stroke="#FCC103" stroke-width="2" stroke-linecap="round" stroke-linejoin="round"/>
<path d="M28.8921 30.753H22.2175" stroke="#FCC103" stroke-width="2" stroke-linecap="round" stroke-linejoin="round"/>
<path d="M52.5749 18.1783L47.8553 22.8978" stroke="#FCC103" stroke-width="2" stroke-linecap="round" stroke-linejoin="round"/>
<path d="M32.1449 38.6082L27.4254 43.3277" stroke="#FCC103" stroke-width="2" stroke-linecap="round" stroke-linejoin="round"/>
<path d="M52.5749 43.3277L47.8553 38.6082" stroke="#FCC103" stroke-width="2" stroke-linecap="round" stroke-linejoin="round"/>
<path d="M32.1449 22.8978L27.4254 18.1783" stroke="#FCC103" stroke-width="2" stroke-linecap="round" stroke-linejoin="round"/>
</svg>
