<svg width="80" height="80" viewBox="0 0 80 80" fill="none" xmlns="http://www.w3.org/2000/svg">
<path d="M7.89764 30.7192V21.5906C7.89764 14.0287 14.1804 7.89771 21.7423 7.89771C29.3042 7.89771 35.4352 14.0287 35.4352 21.5906V48.9763H10.1798" stroke="#FCC103" stroke-width="2" stroke-linecap="round" stroke-linejoin="round"/>
<path d="M21.7422 7.89771H49.128" stroke="#FCC103" stroke-width="2" stroke-linecap="round" stroke-linejoin="round"/>
<path d="M62.8209 7.89771C70.3828 7.89771 76.6655 14.0287 76.6655 21.5906V48.9763H35.4351" stroke="#FCC103" stroke-width="2" stroke-linecap="round" stroke-linejoin="round"/>
<path d="M10.1798 48.9763C6.39824 48.9763 3.33331 45.9114 3.33331 42.1298V30.7191H17.178V42.1298C17.178 45.9114 13.9601 48.9763 10.1798 48.9763Z" stroke="#FCC103" stroke-width="2" stroke-linecap="round" stroke-linejoin="round"/>
<path d="M35.4351 21.5906H17.178V30.7192" stroke="#FCC103" stroke-width="2" stroke-linecap="round" stroke-linejoin="round"/>
<path d="M35.4351 39.8477H26.3065V30.7191H35.4351" stroke="#FCC103" stroke-width="2" stroke-linecap="round" stroke-linejoin="round"/>
<path d="M62.8209 12.462H49.1281V3.33337H62.8209V12.462Z" stroke="#FCC103" stroke-width="2" stroke-linecap="round" stroke-linejoin="round"/>
<path d="M53.6923 30.7192C53.6923 33.2398 51.6486 35.2835 49.128 35.2835C46.6074 35.2835 44.5637 33.2398 44.5637 30.7192C44.5637 28.1986 46.6074 26.1549 49.128 26.1549C51.6486 26.1549 53.6923 28.1986 53.6923 30.7192Z" stroke="#FCC103" stroke-width="2" stroke-linecap="round" stroke-linejoin="round"/>
<path d="M49.1281 12.462V26.1549" stroke="#FCC103" stroke-width="2" stroke-linecap="round" stroke-linejoin="round"/>
<path d="M49.1281 48.9763V76.6667" stroke="#FCC103" stroke-width="2" stroke-linecap="round" stroke-linejoin="round"/>
<path d="M39.9995 76.6667V48.9763" stroke="#FCC103" stroke-width="2" stroke-linecap="round" stroke-linejoin="round"/>
<path d="M21.7422 76.6667H67.3852" stroke="#FCC103" stroke-width="2" stroke-linecap="round" stroke-linejoin="round"/>
</svg>
