<svg width="80" height="80" viewBox="0 0 80 80" fill="none" xmlns="http://www.w3.org/2000/svg">
<path d="M22.8112 63.644C25.0922 63.9613 27.4874 63.2709 29.2424 61.517L40.0006 50.7588C42.778 47.9814 42.9241 43.6088 40.5072 40.6202H40.5084C40.3406 40.4114 40.1934 40.1923 40.0006 39.9995C37.1034 37.1023 37.0543 32.4626 39.8066 29.4786C42.236 30.2683 44.525 31.6136 46.4557 33.5443C52.9919 40.0805 52.9919 50.6767 46.4557 57.2128L35.6975 67.9711C30.2819 73.3867 22.0855 74.3007 15.7136 70.7416L22.8123 63.644H22.8112Z" stroke="#FCC103" stroke-width="2" stroke-linecap="round" stroke-linejoin="round"/>
<path d="M29.4797 39.8054C29.4032 39.8762 29.3165 39.9252 29.2423 39.9994L18.4841 50.7576C16.7303 52.5114 16.0388 54.9066 16.3571 57.1888L9.25842 64.2875C5.69936 57.9168 6.61337 49.7192 12.029 44.3036L22.7872 33.5454C24.7259 31.6067 27.0263 30.2568 29.4683 29.4683" stroke="#FCC103" stroke-width="2" stroke-linecap="round" stroke-linejoin="round"/>
<path d="M50.5201 40.1946C50.5966 40.1239 50.6833 40.0748 50.7575 40.0006L61.5157 29.2424C63.2695 27.4886 63.9611 25.0923 63.6427 22.8112L70.7414 15.7125C74.3005 22.0832 73.3865 30.2808 67.9708 35.6964L57.2126 46.4546C55.2739 48.3934 52.9735 49.7433 50.5316 50.5318" stroke="#FCC103" stroke-width="2" stroke-linecap="round" stroke-linejoin="round"/>
<path d="M40.1946 50.5203C37.7652 49.7307 35.4762 48.3853 33.5454 46.4546C27.0093 39.9184 27.0093 29.3223 33.5454 22.7861L44.3036 12.0279C49.7193 6.61227 57.9157 5.69826 64.2876 9.25732L57.1888 16.3549C54.9078 16.0377 52.5126 16.728 50.7588 18.4819L40.0006 29.2401" stroke="#FCC103" stroke-width="2" stroke-linecap="round" stroke-linejoin="round"/>
<path d="M24.9382 55.0618C23.1558 53.2794 20.2654 53.2794 18.4831 55.0618L4.67016 68.8747C2.88778 70.657 2.88778 73.5474 4.67016 75.3298C6.45255 77.1122 9.34293 77.1122 11.1253 75.3298L24.9382 61.5169C26.7206 59.7345 26.7206 56.8441 24.9382 55.0618Z" stroke="#FCC103" stroke-width="2" stroke-linecap="round" stroke-linejoin="round"/>
<path d="M75.3298 4.67016C73.5474 2.88778 70.657 2.88778 68.8747 4.67016L55.0618 18.4831C53.2794 20.2654 53.2794 23.1558 55.0618 24.9382C56.8441 26.7206 59.7345 26.7206 61.5169 24.9382L75.3298 11.1253C77.1122 9.34293 77.1122 6.45255 75.3298 4.67016Z" stroke="#FCC103" stroke-width="2" stroke-linecap="round" stroke-linejoin="round"/>
</svg>
