<svg width="20" height="20" viewBox="0 0 20 20" fill="none" xmlns="http://www.w3.org/2000/svg">
<path d="M19.3089 6.14388C19.265 5.14922 19.1042 4.46539 18.8738 3.87285C18.636 3.24387 18.2704 2.68076 17.7912 2.21264C17.3231 1.73723 16.7563 1.36782 16.1346 1.13383C15.5386 0.90341 14.8584 0.742561 13.8637 0.698705C12.8616 0.651136 12.5435 0.640137 10.0019 0.640137C7.46027 0.640137 7.14215 0.651136 6.14376 0.694991C5.14909 0.738846 4.46527 0.899839 3.87287 1.13011C3.24375 1.36782 2.68064 1.73352 2.21251 2.21264C1.73711 2.68076 1.36784 3.24759 1.13371 3.86927C0.903288 4.46539 0.742439 5.1455 0.698583 6.14017C0.651014 7.14227 0.640015 7.4604 0.640015 10.002C0.640015 12.5436 0.651014 12.8617 0.694869 13.8601C0.738724 14.8548 0.899717 15.5386 1.13014 16.1311C1.36784 16.7601 1.73711 17.3232 2.21251 17.7913C2.68064 18.2668 3.24747 18.6362 3.86915 18.8702C4.46527 19.1006 5.14538 19.2614 6.14019 19.3053C7.13843 19.3493 7.4567 19.3601 9.9983 19.3601C12.5399 19.3601 12.858 19.3493 13.8564 19.3053C14.8511 19.2614 15.5349 19.1006 16.1273 18.8702C17.3854 18.3838 18.3801 17.3891 18.8665 16.1311C19.0967 15.535 19.2577 14.8548 19.3016 13.8601C19.3454 12.8617 19.3564 12.5436 19.3564 10.002C19.3564 7.4604 19.3527 7.14227 19.3089 6.14388ZM17.6231 13.787C17.5828 14.7012 17.4292 15.1949 17.3013 15.524C16.9867 16.3396 16.3394 16.9868 15.5239 17.3014C15.1948 17.4294 14.6975 17.5829 13.7868 17.6231C12.7995 17.6671 12.5033 17.6779 10.0056 17.6779C7.50784 17.6779 7.208 17.6671 6.22419 17.6231C5.30994 17.5829 4.81625 17.4294 4.48712 17.3014C4.08129 17.1514 3.71187 16.9137 3.41203 16.6028C3.10119 16.2993 2.86348 15.9336 2.71349 15.5277C2.5855 15.1986 2.43193 14.7012 2.39179 13.7907C2.34779 12.8033 2.33694 12.507 2.33694 10.0093C2.33694 7.51154 2.34779 7.21169 2.39179 6.22802C2.43193 5.31378 2.5855 4.82009 2.71349 4.49096C2.86348 4.08498 3.10119 3.71571 3.41574 3.41572C3.71916 3.10488 4.08486 2.86718 4.49084 2.71733C4.81997 2.58933 5.31737 2.43577 6.2279 2.39548C7.21529 2.35163 7.51156 2.34063 10.0092 2.34063C12.5106 2.34063 12.8067 2.35163 13.7906 2.39548C14.7048 2.43577 15.1985 2.58933 15.5276 2.71733C15.9335 2.86718 16.3029 3.10488 16.6027 3.41572C16.9136 3.71928 17.1513 4.08498 17.3013 4.49096C17.4292 4.82009 17.5828 5.31735 17.6231 6.22802C17.667 7.21541 17.6779 7.51154 17.6779 10.0093C17.6779 12.507 17.667 12.7996 17.6231 13.787Z" fill="#8686A3"/>
<path d="M10.0019 5.19287C7.34698 5.19287 5.19293 7.34677 5.19293 10.0018C5.19293 12.6568 7.34698 14.8107 10.0019 14.8107C12.6569 14.8107 14.8108 12.6568 14.8108 10.0018C14.8108 7.34677 12.6569 5.19287 10.0019 5.19287ZM10.0019 13.1212C8.27951 13.1212 6.88243 11.7243 6.88243 10.0018C6.88243 8.2793 8.27951 6.88237 10.0019 6.88237C11.7243 6.88237 13.1213 8.2793 13.1213 10.0018C13.1213 11.7243 11.7243 13.1212 10.0019 13.1212Z" fill="#8686A3"/>
<path d="M16.1237 5.00303C16.1237 5.62301 15.621 6.1257 15.0009 6.1257C14.381 6.1257 13.8783 5.62301 13.8783 5.00303C13.8783 4.38292 14.381 3.88037 15.0009 3.88037C15.621 3.88037 16.1237 4.38292 16.1237 5.00303Z" fill="#8686A3"/>
</svg>
