<svg width="16" height="13" viewBox="0 0 16 13" fill="none" xmlns="http://www.w3.org/2000/svg">
<path fill-rule="evenodd" clip-rule="evenodd" d="M14.3766 0.0847208C14.5692 0.00898639 14.7794 -0.016622 14.9857 0.0105182C15.1921 0.0376584 15.3871 0.116572 15.5509 0.239174C15.7147 0.361776 15.8413 0.523661 15.9179 0.708241C15.9944 0.892822 16.018 1.09346 15.9863 1.28961C15.5299 4.11769 14.6931 9.29994 14.2489 12.0508C14.2182 12.2411 14.1364 12.4207 14.0115 12.5722C13.8866 12.7236 13.7228 12.8418 13.536 12.9153C13.3491 12.9888 13.1456 13.0151 12.9449 12.9917C12.7443 12.9683 12.5533 12.896 12.3906 12.7818C10.8192 11.6788 8.46325 10.025 7.2671 9.18502C7.17479 9.1202 7.09855 9.03688 7.04375 8.94091C6.98894 8.84495 6.95692 8.7387 6.94995 8.62965C6.94297 8.52061 6.9612 8.41143 7.00336 8.30984C7.04552 8.20825 7.11058 8.11671 7.19394 8.04169C8.28999 7.05547 10.473 5.09123 11.9749 3.73969C12.0103 3.70766 12.0319 3.66419 12.0354 3.61781C12.0389 3.57143 12.024 3.52548 11.9938 3.48896C11.9636 3.45244 11.9202 3.42799 11.872 3.42039C11.8239 3.41279 11.7745 3.4226 11.7335 3.44789C9.80772 4.64457 6.85833 6.47709 5.41281 7.37526C5.14191 7.54359 4.83745 7.65682 4.5185 7.70787C4.19954 7.75892 3.87295 7.74667 3.55919 7.67191C2.76323 7.48235 1.61514 7.20883 0.593431 6.96554C0.433469 6.92746 0.290198 6.84226 0.184024 6.72208C0.0778504 6.6019 0.0141885 6.45286 0.00210647 6.29619C-0.00997561 6.13953 0.0301384 5.98323 0.116734 5.84955C0.20333 5.71587 0.331992 5.61163 0.484394 5.55169C4.04108 4.15202 11.0015 1.41312 14.3766 0.0847208Z" fill="#8686A3"/>
</svg>
